<mxfile host="app.diagrams.net" modified="2024-01-02T13:32:27.197Z" agent="Mozilla/5.0 (Macintosh; Intel Mac OS X 10_15_7) AppleWebKit/605.1.15 (KHTML, like Gecko) Version/16.2 Safari/605.1.15" etag="JrBuBFQS-yfO8Jsrmd94" version="22.1.16" type="device">
  <diagram name="Page-1" id="80Xx5_V7AYoYYCBFcPBS">
    <mxGraphModel dx="627" dy="518" grid="1" gridSize="10" guides="1" tooltips="1" connect="1" arrows="1" fold="1" page="1" pageScale="1" pageWidth="850" pageHeight="1100" math="0" shadow="0">
      <root>
        <mxCell id="0" />
        <mxCell id="1" parent="0" />
        <mxCell id="6V_RxtZbmtCBJ1EOpkRF-320" value="" style="ellipse;html=1;shape=startState;fillColor=#000000;strokeColor=#ff0000;" vertex="1" parent="1">
          <mxGeometry x="245" y="10" width="30" height="30" as="geometry" />
        </mxCell>
        <mxCell id="6V_RxtZbmtCBJ1EOpkRF-321" value="" style="edgeStyle=orthogonalEdgeStyle;html=1;verticalAlign=bottom;endArrow=open;endSize=8;strokeColor=#ff0000;rounded=0;" edge="1" parent="1" source="6V_RxtZbmtCBJ1EOpkRF-320">
          <mxGeometry relative="1" as="geometry">
            <mxPoint x="260" y="100" as="targetPoint" />
          </mxGeometry>
        </mxCell>
        <mxCell id="6V_RxtZbmtCBJ1EOpkRF-339" value="更新UI信息" style="strokeWidth=2;html=1;shape=mxgraph.flowchart.terminator;whiteSpace=wrap;" vertex="1" parent="1">
          <mxGeometry x="210" y="100" width="100" height="60" as="geometry" />
        </mxCell>
        <mxCell id="6V_RxtZbmtCBJ1EOpkRF-340" style="edgeStyle=orthogonalEdgeStyle;rounded=0;orthogonalLoop=1;jettySize=auto;html=1;exitX=0.5;exitY=1;exitDx=0;exitDy=0;exitPerimeter=0;entryX=0.5;entryY=0;entryDx=0;entryDy=0;entryPerimeter=0;" edge="1" parent="1" source="6V_RxtZbmtCBJ1EOpkRF-339">
          <mxGeometry relative="1" as="geometry">
            <mxPoint x="260.0000000000001" y="190" as="targetPoint" />
          </mxGeometry>
        </mxCell>
        <mxCell id="6V_RxtZbmtCBJ1EOpkRF-341" value="新建迭代器" style="strokeWidth=2;html=1;shape=mxgraph.flowchart.terminator;whiteSpace=wrap;" vertex="1" parent="1">
          <mxGeometry x="210" y="190" width="100" height="60" as="geometry" />
        </mxCell>
        <mxCell id="6V_RxtZbmtCBJ1EOpkRF-350" style="edgeStyle=orthogonalEdgeStyle;rounded=0;orthogonalLoop=1;jettySize=auto;html=1;exitX=1;exitY=0.5;exitDx=0;exitDy=0;exitPerimeter=0;" edge="1" parent="1" source="6V_RxtZbmtCBJ1EOpkRF-344">
          <mxGeometry relative="1" as="geometry">
            <mxPoint x="259.9999999999999" y="260" as="targetPoint" />
            <Array as="points">
              <mxPoint x="360" y="380" />
              <mxPoint x="360" y="260" />
            </Array>
          </mxGeometry>
        </mxCell>
        <mxCell id="6V_RxtZbmtCBJ1EOpkRF-344" value="" style="strokeWidth=2;html=1;shape=mxgraph.flowchart.decision;whiteSpace=wrap;" vertex="1" parent="1">
          <mxGeometry x="240" y="360" width="40" height="40" as="geometry" />
        </mxCell>
        <mxCell id="6V_RxtZbmtCBJ1EOpkRF-346" style="edgeStyle=orthogonalEdgeStyle;rounded=0;orthogonalLoop=1;jettySize=auto;html=1;exitX=0.5;exitY=1;exitDx=0;exitDy=0;exitPerimeter=0;entryX=0.5;entryY=0;entryDx=0;entryDy=0;entryPerimeter=0;" edge="1" parent="1" source="6V_RxtZbmtCBJ1EOpkRF-344">
          <mxGeometry relative="1" as="geometry">
            <mxPoint x="260.0000000000001" y="430" as="targetPoint" />
          </mxGeometry>
        </mxCell>
        <mxCell id="6V_RxtZbmtCBJ1EOpkRF-347" value="调用迭代器的下一个组件的相关方法" style="strokeWidth=2;html=1;shape=mxgraph.flowchart.terminator;whiteSpace=wrap;" vertex="1" parent="1">
          <mxGeometry x="210" y="280" width="100" height="60" as="geometry" />
        </mxCell>
        <mxCell id="6V_RxtZbmtCBJ1EOpkRF-348" style="edgeStyle=orthogonalEdgeStyle;rounded=0;orthogonalLoop=1;jettySize=auto;html=1;exitX=0.5;exitY=1;exitDx=0;exitDy=0;exitPerimeter=0;entryX=0.5;entryY=0;entryDx=0;entryDy=0;entryPerimeter=0;" edge="1" parent="1" source="6V_RxtZbmtCBJ1EOpkRF-341" target="6V_RxtZbmtCBJ1EOpkRF-347">
          <mxGeometry relative="1" as="geometry" />
        </mxCell>
        <mxCell id="6V_RxtZbmtCBJ1EOpkRF-349" style="edgeStyle=orthogonalEdgeStyle;rounded=0;orthogonalLoop=1;jettySize=auto;html=1;exitX=0.5;exitY=1;exitDx=0;exitDy=0;exitPerimeter=0;entryX=0.5;entryY=0;entryDx=0;entryDy=0;entryPerimeter=0;" edge="1" parent="1" source="6V_RxtZbmtCBJ1EOpkRF-347" target="6V_RxtZbmtCBJ1EOpkRF-344">
          <mxGeometry relative="1" as="geometry" />
        </mxCell>
        <mxCell id="6V_RxtZbmtCBJ1EOpkRF-351" value="存在下一个组件" style="text;html=1;align=center;verticalAlign=middle;resizable=0;points=[];autosize=1;strokeColor=none;fillColor=none;" vertex="1" parent="1">
          <mxGeometry x="255" y="350" width="110" height="30" as="geometry" />
        </mxCell>
        <mxCell id="6V_RxtZbmtCBJ1EOpkRF-352" value="" style="ellipse;html=1;shape=endState;fillColor=#000000;strokeColor=#ff0000;" vertex="1" parent="1">
          <mxGeometry x="245" y="430" width="30" height="30" as="geometry" />
        </mxCell>
        <mxCell id="6V_RxtZbmtCBJ1EOpkRF-353" value="没有下一个组件" style="text;html=1;align=center;verticalAlign=middle;resizable=0;points=[];autosize=1;strokeColor=none;fillColor=none;" vertex="1" parent="1">
          <mxGeometry x="150" y="390" width="110" height="30" as="geometry" />
        </mxCell>
      </root>
    </mxGraphModel>
  </diagram>
</mxfile>
